<?xml version="1.0" standalone="no"?>
<!DOCTYPE svg PUBLIC "-//W3C//DTD SVG 20010904//EN"
 "http://www.w3.org/TR/2001/REC-SVG-20010904/DTD/svg10.dtd">
<svg version="1.0" xmlns="http://www.w3.org/2000/svg"
 width="1200.000000pt" height="1200.000000pt" viewBox="0 0 1200.000000 1200.000000"
 preserveAspectRatio="xMidYMid meet">
<metadata>
Created by potrace 1.14, written by Peter Selinger 2001-2017
</metadata>
<g transform="translate(0.000000,1200.000000) scale(0.100000,-0.100000)"
fill="#000000" stroke="none">
<path d="M5840 9669 c-74 -44 -141 -84 -149 -88 -11 -7 0 -30 53 -107 181
-263 178 -259 165 -287 -12 -26 -15 -22 -142 164 -94 138 -135 189 -146 186
-9 -3 -335 -191 -726 -420 l-710 -414 -3 -94 c-3 -109 -24 -73 203 -349 259
-314 382 -464 529 -645 76 -93 145 -177 153 -187 12 -14 12 -20 1 -42 l-13
-25 -66 82 c-98 121 -721 880 -768 935 l-40 47 2 -920 2 -919 200 -118 c144
-85 202 -114 208 -105 5 6 111 232 237 500 224 479 229 488 244 465 16 -24 10
-37 -180 -444 -108 -230 -211 -451 -229 -490 l-32 -71 304 -177 c168 -98 306
-176 307 -174 2 2 82 150 180 329 97 180 183 335 191 345 13 18 14 18 25 -7
10 -23 -3 -52 -170 -358 -100 -183 -178 -337 -174 -341 29 -28 684 -400 704
-400 27 0 370 196 370 211 0 6 -113 148 -252 317 -139 169 -296 361 -350 426
-54 66 -98 124 -98 130 0 6 5 18 10 26 8 13 11 13 24 0 16 -17 382 -463 580
-707 94 -117 136 -161 148 -159 10 2 151 82 314 177 239 140 301 180 318 209
12 19 105 187 206 372 173 318 184 336 198 317 18 -26 23 -16 -178 -384 -83
-151 -150 -276 -150 -279 0 -8 559 319 560 327 0 5 -46 76 -102 158 -95 140
-100 151 -89 175 11 26 14 23 117 -127 58 -85 111 -160 117 -166 10 -10 19 -8
45 7 l32 20 0 422 c0 255 -4 418 -9 413 -5 -6 -71 -122 -145 -260 -75 -137
-140 -253 -144 -257 -5 -5 -14 2 -21 15 -11 20 1 46 125 272 75 138 149 276
165 307 l29 58 -2 571 -3 571 -383 224 c-211 123 -387 224 -392 224 -4 0 -112
-192 -240 -427 -128 -236 -234 -429 -235 -431 -1 -1 -9 8 -18 21 -15 23 -7 38
215 446 127 232 229 423 227 425 -28 24 -796 463 -801 458 -3 -4 -55 -112
-114 -240 -106 -228 -109 -233 -126 -212 -20 25 -26 8 106 289 48 101 85 189
82 196 -7 18 -112 75 -138 75 -13 -1 -84 -37 -158 -81z m410 -932 c256 -375
272 -400 261 -424 -7 -15 -16 -22 -20 -17 -5 5 -130 188 -280 406 -256 375
-270 398 -259 423 6 14 15 22 18 18 4 -5 130 -187 280 -406z m-332 382 c12
-19 -25 -102 -389 -880 -221 -472 -406 -859 -410 -859 -5 0 -13 9 -19 20 -9
16 57 164 392 879 222 474 405 861 408 861 3 0 11 -9 18 -21z m1106 -1511
c417 -609 456 -669 444 -687 -7 -12 -15 -21 -18 -21 -3 1 -167 238 -365 527
-198 290 -402 588 -453 663 -88 129 -93 138 -81 163 7 15 13 26 14 25 1 -2
207 -303 459 -670z m-522 568 c-16 -28 -203 -373 -417 -766 -214 -393 -390
-717 -392 -719 -8 -11 -34 25 -30 41 3 10 191 360 419 778 406 748 413 760
431 739 17 -21 16 -23 -11 -73z m-1119 -1133 c142 -172 257 -319 257 -327 0
-7 -6 -18 -13 -24 -10 -8 -73 62 -270 303 -245 299 -256 315 -245 340 6 14 12
24 13 23 1 -2 117 -144 258 -315z"/>
<path d="M3215 4571 c-11 -5 -29 -19 -40 -31 -18 -20 -20 -36 -20 -176 l0
-154 28 -27 c25 -26 34 -28 122 -31 l95 -4 0 -109 0 -109 -50 0 -50 0 0 60 0
60 -75 0 -75 0 0 -67 c0 -78 21 -131 60 -150 16 -8 70 -13 147 -13 121 0 123
0 155 29 l33 29 3 145 c5 209 -16 237 -173 237 -64 0 -75 2 -76 18 -4 70 1
176 9 184 5 5 27 8 48 6 l39 -3 3 -57 3 -58 74 0 75 0 0 65 c0 138 -33 165
-202 164 -62 0 -122 -4 -133 -8z"/>
<path d="M3710 4200 l0 -380 190 0 190 0 0 55 0 55 -115 0 -115 0 0 110 0 110
95 0 96 0 -3 58 -3 57 -92 3 -93 3 0 99 0 100 110 0 110 0 0 55 0 55 -185 0
-185 0 0 -380z"/>
<path d="M4230 4200 l0 -380 75 0 75 0 0 146 c0 142 1 145 21 142 16 -2 31
-31 75 -142 29 -76 55 -141 57 -143 3 -2 38 -3 79 -1 l75 3 -61 144 c-43 103
-57 146 -47 149 7 2 24 14 39 27 27 23 27 24 30 182 2 94 -1 169 -7 186 -6 15
-25 36 -43 47 -30 18 -51 20 -200 20 l-168 0 0 -380z m267 254 c5 -13 7 -154
4 -216 -1 -15 -11 -18 -61 -18 l-60 0 0 125 0 125 55 0 c41 0 57 -4 62 -16z"/>
<path d="M4830 4200 l0 -380 190 0 190 0 0 55 0 55 -115 0 -115 0 0 110 0 110
95 0 96 0 -3 58 -3 57 -92 3 -93 3 0 99 0 100 110 0 110 0 0 55 0 55 -185 0
-185 0 0 -380z"/>
<path d="M5350 4200 l0 -380 70 0 70 0 1 233 0 232 65 -195 c35 -107 69 -212
74 -232 l11 -38 69 0 70 0 0 380 0 380 -65 0 -65 0 -2 -236 -3 -235 -75 235
-75 236 -72 0 -73 0 0 -380z"/>
<path d="M5970 4199 l0 -380 186 3 186 3 23 27 c33 39 37 78 33 383 -3 241 -5
273 -21 297 -28 41 -65 48 -243 48 l-164 0 0 -381z m278 0 l2 -267 -22 -6
c-13 -3 -42 -6 -65 -6 l-43 0 0 275 0 276 63 -3 62 -3 3 -266z"/>
<path d="M6580 4200 l0 -380 75 0 75 0 0 380 0 380 -75 0 -75 0 0 -380z"/>
<path d="M6910 4200 l0 -380 180 0 180 0 32 29 33 29 3 138 c3 123 2 140 -16
163 -19 26 -19 27 -1 50 16 20 19 41 19 141 0 137 -7 162 -52 190 -30 18 -51
20 -205 20 l-173 0 0 -380z m284 254 c3 -9 6 -49 6 -89 0 -104 -1 -105 -76
-105 l-64 0 0 105 0 105 64 0 c49 0 65 -4 70 -16z m0 -320 c3 -9 6 -53 6 -99
0 -103 -9 -115 -86 -115 l-54 0 0 115 0 115 64 0 c49 0 65 -4 70 -16z"/>
<path d="M7530 4200 l0 -380 75 0 75 0 0 380 0 380 -75 0 -75 0 0 -380z"/>
<path d="M7810 4577 c0 -1 41 -121 90 -265 l90 -263 0 -115 0 -114 70 0 70 0
0 119 0 119 84 259 85 258 -71 3 c-39 2 -74 -1 -77 -7 -3 -5 -26 -89 -50 -187
l-44 -178 -18 64 c-9 36 -32 120 -49 188 l-33 122 -73 0 c-41 0 -74 -1 -74 -3z"/>
<path d="M8525 4558 c-16 -71 -145 -714 -145 -725 0 -9 19 -13 70 -13 78 0 72
-7 88 95 l7 50 82 3 81 3 13 -76 12 -75 73 0 c41 0 74 2 74 5 0 7 -151 719
-156 738 -5 15 -18 17 -99 17 -90 0 -95 -1 -100 -22z m155 -450 c0 -15 -9 -18
-56 -18 -56 0 -56 0 -51 28 3 15 15 90 28 167 l23 140 27 -150 c16 -82 28
-158 29 -167z"/>
</g>
</svg>
